Patient4_TMGait_0pt3_02_right_23_GRF.mot
version=1
nRows=26
nColumns=19
inDegrees=no
endheader
time	F1x	F1y	F1z	M1x	M1y	M1z	F2x	F2y	F2z	M2x	M2y	M2z	EC1x	EC1y	EC1z	EC2x	EC2y	EC2z
44.11	-15.4461	786.7352	56.5608	-261.8276	-59.1358	812.7105	5.9532	48.6307	-4.1744	18.1113	3.6603	40.1527	-0.0592	0.0182	-0.0073	-0.0462	0.0165	0.9585
44.1298	-13.4269	802.5502	58.1475	-267.2415	-59.9983	825.1739	2.8671	39.7456	-3.5363	14.9064	3.6202	33.1608	-0.0592	0.0182	-0.0073	-0.0462	0.0165	0.9585
44.1496	-11.0686	817.8578	59.7953	-272.5278	-60.6695	836.2633	0.40544	30.5088	-2.8169	11.5267	3.36	25.789	-0.0592	0.0182	-0.0073	-0.0462	0.0165	0.9585
44.1694	-8.4025	830.2069	61.2797	-276.8615	-60.9313	843.6738	-1.1647	21.8071	-2.0855	8.3059	2.8756	18.7634	-0.0592	0.0182	-0.0073	-0.0462	0.0165	0.9585
44.1891	-5.4743	837.3491	62.4034	-279.4738	-60.6218	845.3751	-1.8662	14.3802	-1.4177	5.5316	2.2463	12.7108	-0.0592	0.0182	-0.0073	-0.0462	0.0165	0.9585
44.2089	-2.3397	837.6721	63.0173	-279.8034	-59.6435	839.998	-1.9753	8.651	-0.87468	3.3751	1.6174	8.0086	-0.0592	0.0182	-0.0073	-0.0462	0.0165	0.9585
44.2287	0.968	830.586	63.0269	-277.6375	-57.9519	827.1711	-1.7542	4.6126	-0.47686	1.8439	1.084	4.6696	-0.0592	0.0182	-0.0073	-0.0462	0.0165	0.9585
44.2485	4.4604	816.7068	62.3928	-273.1801	-55.5442	807.6593	-1.3914	1.9852	-0.21234	0.83918	0.67895	2.4647	-0.0592	0.0182	-0.0073	-0.0462	0.0165	0.9585
44.2683	8.168	797.7297	61.1358	-267.0089	-52.4634	783.2202	-1.0084	0.36776	-0.052538	0.21263	0.39459	1.0557	-0.0592	0.0182	-0.0073	-0.0462	0.0165	0.9585
44.2881	12.0965	776.1294	59.3313	-259.9671	-48.8007	756.3197	-0.66889	-0.66755	0.036913	-0.19668	0.20259	0.072442	-0.0592	0.0182	-0.0073	-0.0462	0.0165	0.9585
44.3079	16.2202	754.7777	57.1124	-253.03	-44.7007	729.7538	-0.39215	-1.518	0.090624	-0.53875	0.066138	-0.84156	-0.0592	0.0182	-0.0073	-0.0462	0.0165	0.9585
44.3276	20.4928	736.5101	54.6635	-247.1565	-40.3548	706.2414	-0.16849	-2.5111	0.1407	-0.93801	-0.05629	-1.9842	-0.0592	0.0182	-0.0073	-0.0462	0.0165	0.9585
44.3474	24.8577	723.6695	52.201	-243.1319	-35.9844	688.0059	0.028631	-3.8662	0.21861	-1.4794	-0.20841	-3.5527	-0.0592	0.0182	-0.0073	-0.0462	0.0165	0.9585
44.3672	29.2577	717.6812	49.9497	-241.4247	-31.8178	676.3832	0.23307	-5.6558	0.35112	-2.1916	-0.43043	-5.5978	-0.0592	0.0182	-0.0073	-0.0462	0.0165	0.9585
44.387	33.6393	718.7448	48.1179	-242.0794	-28.0659	671.5566	0.47927	-7.7556	0.5516	-3.0263	-0.74753	-7.9725	-0.0592	0.0182	-0.0073	-0.0462	0.0165	0.9585
44.4068	37.9261	725.6984	46.8781	-244.6674	-24.9154	672.4741	0.7935	-9.7785	0.81351	-3.8307	-1.1601	-10.2617	-0.0592	0.0182	-0.0073	-0.0462	0.0165	0.9585
44.4266	42.0051	736.148	46.3477	-248.335	-22.5201	676.9906	1.1834	-11.0025	1.1049	-4.3185	-1.6331	-11.7015	-0.0592	0.0182	-0.0073	-0.0462	0.0165	0.9585
44.4464	45.7393	746.9151	46.5553	-251.9631	-20.9676	682.2726	1.628	-10.2911	1.3676	-4.0438	-2.0886	-11.0828	-0.0592	0.0182	-0.0073	-0.0462	0.0165	0.9585
44.4661	48.9893	754.6763	47.4218	-254.3928	-20.2526	685.3702	2.0649	-6.0603	1.5087	-2.3864	-2.3913	-6.7017	-0.0592	0.0182	-0.0073	-0.0462	0.0165	0.9585
44.4859	51.6395	756.5481	48.7824	-254.6314	-20.2889	683.7286	2.3725	3.6857	1.3924	1.4329	-2.3361	3.5981	-0.0592	0.0182	-0.0073	-0.0462	0.0165	0.9585
44.5057	53.6153	750.44	50.3925	-251.9824	-20.906	675.4957	2.3521	21.183	0.83743	8.2867	-1.6359	22.2436	-0.0592	0.0182	-0.0073	-0.0462	0.0165	0.9585
44.5255	54.8726	735.1666	51.9147	-246.0899	-21.8369	659.6213	1.7146	48.54	-0.38064	18.9984	0.077007	51.5451	-0.0592	0.0182	-0.0073	-0.0462	0.0165	0.9585
44.5453	55.3805	710.3045	52.9471	-236.8861	-22.745	635.7243	0.02199	87.1447	-2.4866	34.1099	3.2263	93.065	-0.0592	0.0182	-0.0073	-0.0462	0.0165	0.9585
44.5651	55.1077	675.953	53.092	-224.4979	-23.2859	603.8699	-3.3403	136.8565	-5.5894	53.566	8.1744	146.7497	-0.0592	0.0182	-0.0073	-0.0462	0.0165	0.9585
44.5849	54.0009	632.6663	52.0446	-209.2031	-23.1893	564.5108	-8.6389	195.3045	-9.639	76.4311	14.9695	210.1589	-0.0592	0.0182	-0.0073	-0.0462	0.0165	0.9585
44.6046	52.0273	581.7294	49.6774	-191.5112	-22.3203	518.7227	-15.3543	257.4844	-14.4693	100.7231	23.2076	277.952	-0.0592	0.0182	-0.0073	-0.0462	0.0165	0.9585
